<?xml version="1.0" encoding="UTF-8"?>
<svg width="271px" height="284px" viewBox="0 0 271 284" version="1.1" xmlns="http://www.w3.org/2000/svg" xmlns:xlink="http://www.w3.org/1999/xlink">
    <title>icon-brand</title>
    <g id="icon-brand" stroke="none" stroke-width="1" fill="none" fill-rule="evenodd">
        <g id="v1" transform="translate(0.357430, 0.587305)">
            <path d="M119.383022,0 C119.852061,20.8666507 120.086581,39.7647246 120.086581,56.6942215 C120.086581,66.1217897 128.172165,72.3350869 138.302975,67.7018656 C164.068698,55.9181781 194.19,42.3139394 228.666881,26.8891494 C197.495812,33.0761562 175.037062,35.9821283 161.290634,35.6070655 C154.071734,35.4101023 147.14257,31.7599618 143.425435,27.6528618 C134.106153,17.3558906 126.092015,8.13826998 119.383022,0 Z" id="Path" fill="#80BFE1"></path>
            <path d="M87.0274662,9.89041952 C92.8471561,29.0769774 98.3308034,46.7569889 103.478408,62.9304541 C105.993509,70.8327509 100.417719,77.6552919 93.5095179,79.2386502 C66.6219518,85.4012748 35.4521125,92.6764547 0,101.06419 C19.8749377,87.925558 40.0813094,74.432155 60.6191151,60.5839808 C66.0382263,56.9299977 72.2692694,50.5924384 74.7393934,45.3344618 C79.6037664,34.9800186 83.6997907,23.1653379 87.0274662,9.89041952 Z" id="Path-3" fill="#194E6A"></path>
            <path d="M19.4637545,123.695415 C41.0588896,114.653074 63.8188123,104.955863 87.7435225,94.6037811 C97.2875042,90.4741561 108.948996,92.6319177 110.583259,108.495582 C115.023414,151.595813 121.500672,209.878794 130.015032,283.344525 C105.149868,218.777447 87.9042925,174.129027 78.2783054,149.399266 C75.2533475,141.627961 67.4021646,129.916227 54.9462034,128.206152 C40.0783189,126.164946 28.250836,124.661367 19.4637545,123.695415 Z" id="Path-4" fill="#80BFE1"></path>
            <path d="M269.733803,48.4543013 C224.142129,59.9447105 179.186495,71.0880454 134.866902,81.8843057 C128.86678,83.3459365 123.845434,91.5194234 125.85897,99.5034721 C136.530047,141.816309 147.623337,186.938259 159.138841,234.869322 C162.881004,187.604438 165.889468,152.61434 168.164232,129.899027 C169.623826,115.323828 181.367753,105.985378 188.422372,101.06419 C217.794293,80.5748134 244.898103,63.0381839 269.733803,48.4543013 Z" id="Path-5" fill="#194E6A"></path>
        </g>
    </g>
</svg>