<?xml version="1.0" encoding="UTF-8"?>
<svg width="416px" height="128px" viewBox="0 0 416 128" version="1.1" xmlns="http://www.w3.org/2000/svg" xmlns:xlink="http://www.w3.org/1999/xlink">
    <title>logo-brand</title>
    <g id="logo-brand" stroke="none" stroke-width="1" fill="none" fill-rule="evenodd">
        <g id="Outline" transform="translate(1.469974, 0.120000)" fill-rule="nonzero">
            <g id="experience-life-with" transform="translate(0.674000, 93.924000)" fill="#194E6A">
                <path d="M15.264,17.82 C15.3,17.496 15.372,16.992 15.372,16.344 C15.372,13.14 13.86,8.136 8.172,8.136 C3.096,8.136 0,12.276 0,17.532 C0,22.788 3.204,26.352 8.568,26.352 C11.34,26.352 13.248,25.74 14.364,25.236 L13.824,22.968 C12.636,23.472 11.268,23.868 9,23.868 C5.832,23.868 3.096,22.104 3.024,17.82 L15.264,17.82 Z M3.06,15.552 C3.312,13.356 4.716,10.404 7.92,10.404 C11.484,10.404 12.348,13.536 12.312,15.552 L3.06,15.552 Z" id="Shape"></path>
                <path d="M20.836,8.532 L26.74,17.064 L20.548,25.956 L24.04,25.956 L26.56,22.032 C27.208,20.988 27.82,20.088 28.396,19.008 L28.468,19.008 C29.08,20.052 29.656,21.024 30.34,22.032 L32.896,25.956 L36.496,25.956 L30.376,16.956 L36.316,8.532 L32.896,8.532 L30.448,12.24 C29.872,13.176 29.296,14.076 28.72,15.12 L28.612,15.12 C28.036,14.148 27.496,13.248 26.848,12.276 L24.364,8.532 L20.836,8.532 Z" id="Path"></path>
                <path d="M43.256,33.084 L46.388,33.084 L46.388,23.616 L46.46,23.616 C47.504,25.344 49.52,26.352 51.824,26.352 C55.928,26.352 59.744,23.256 59.744,16.992 C59.744,11.7 56.576,8.136 52.364,8.136 C49.52,8.136 47.468,9.396 46.172,11.52 L46.1,11.52 L45.956,8.532 L43.112,8.532 C43.184,10.188 43.256,11.988 43.256,14.22 L43.256,33.084 Z M46.388,15.876 C46.388,15.444 46.496,14.976 46.604,14.58 C47.216,12.204 49.232,10.656 51.392,10.656 C54.74,10.656 56.576,13.644 56.576,17.136 C56.576,21.132 54.632,23.868 51.284,23.868 C49.016,23.868 47.108,22.356 46.532,20.16 C46.46,19.764 46.388,19.332 46.388,18.864 L46.388,15.876 Z" id="Shape"></path>
                <path d="M81.444,17.82 C81.48,17.496 81.552,16.992 81.552,16.344 C81.552,13.14 80.04,8.136 74.352,8.136 C69.276,8.136 66.18,12.276 66.18,17.532 C66.18,22.788 69.384,26.352 74.748,26.352 C77.52,26.352 79.428,25.74 80.544,25.236 L80.004,22.968 C78.816,23.472 77.448,23.868 75.18,23.868 C72.012,23.868 69.276,22.104 69.204,17.82 L81.444,17.82 Z M69.24,15.552 C69.492,13.356 70.896,10.404 74.1,10.404 C77.664,10.404 78.528,13.536 78.492,15.552 L69.24,15.552 Z" id="Shape"></path>
                <path d="M89.176,25.956 L92.308,25.956 L92.308,16.668 C92.308,16.128 92.38,15.624 92.452,15.192 C92.884,12.816 94.468,11.124 96.7,11.124 C97.132,11.124 97.456,11.16 97.78,11.232 L97.78,8.244 C97.492,8.172 97.24,8.136 96.88,8.136 C94.756,8.136 92.848,9.612 92.056,11.952 L91.912,11.952 L91.804,8.532 L89.032,8.532 C89.14,10.152 89.176,11.916 89.176,13.968 L89.176,25.956 Z" id="Path"></path>
                <path d="M107.96,25.956 L107.96,8.532 L104.792,8.532 L104.792,25.956 L107.96,25.956 Z M106.376,1.656 C105.224,1.656 104.396,2.52 104.396,3.636 C104.396,4.716 105.188,5.58 106.304,5.58 C107.564,5.58 108.356,4.716 108.32,3.636 C108.32,2.52 107.564,1.656 106.376,1.656 Z" id="Shape"></path>
                <path d="M130.92,17.82 C130.956,17.496 131.028,16.992 131.028,16.344 C131.028,13.14 129.516,8.136 123.828,8.136 C118.752,8.136 115.656,12.276 115.656,17.532 C115.656,22.788 118.86,26.352 124.224,26.352 C126.996,26.352 128.904,25.74 130.02,25.236 L129.48,22.968 C128.292,23.472 126.924,23.868 124.656,23.868 C121.488,23.868 118.752,22.104 118.68,17.82 L130.92,17.82 Z M118.716,15.552 C118.968,13.356 120.372,10.404 123.576,10.404 C127.14,10.404 128.004,13.536 127.968,15.552 L118.716,15.552 Z" id="Shape"></path>
                <path d="M138.652,25.956 L141.82,25.956 L141.82,15.48 C141.82,14.94 141.892,14.4 142.036,14.004 C142.576,12.24 144.196,10.764 146.284,10.764 C149.272,10.764 150.316,13.104 150.316,15.912 L150.316,25.956 L153.484,25.956 L153.484,15.552 C153.484,9.576 149.74,8.136 147.328,8.136 C144.448,8.136 142.432,9.756 141.568,11.412 L141.496,11.412 L141.316,8.532 L138.508,8.532 C138.616,9.972 138.652,11.448 138.652,13.248 L138.652,25.956 Z" id="Path"></path>
                <path d="M174.212,22.932 C173.312,23.328 172.124,23.796 170.324,23.796 C166.868,23.796 164.276,21.312 164.276,17.28 C164.276,13.644 166.436,10.692 170.432,10.692 C172.16,10.692 173.348,11.088 174.104,11.52 L174.824,9.072 C173.96,8.64 172.304,8.172 170.432,8.172 C164.744,8.172 161.072,12.06 161.072,17.424 C161.072,22.752 164.492,26.352 169.748,26.352 C172.088,26.352 173.924,25.74 174.752,25.308 L174.212,22.932 Z" id="Path"></path>
                <path d="M195.948,17.82 C195.984,17.496 196.056,16.992 196.056,16.344 C196.056,13.14 194.544,8.136 188.856,8.136 C183.78,8.136 180.684,12.276 180.684,17.532 C180.684,22.788 183.888,26.352 189.252,26.352 C192.024,26.352 193.932,25.74 195.048,25.236 L194.508,22.968 C193.32,23.472 191.952,23.868 189.684,23.868 C186.516,23.868 183.78,22.104 183.708,17.82 L195.948,17.82 Z M183.744,15.552 C183.996,13.356 185.4,10.404 188.604,10.404 C192.168,10.404 193.032,13.536 192.996,15.552 L183.744,15.552 Z" id="Shape"></path>
                <polygon id="Path" points="215.012 25.956 218.18 25.956 218.18 0.396 215.012 0.396"></polygon>
                <path d="M230.376,25.956 L230.376,8.532 L227.208,8.532 L227.208,25.956 L230.376,25.956 Z M228.792,1.656 C227.64,1.656 226.812,2.52 226.812,3.636 C226.812,4.716 227.604,5.58 228.72,5.58 C229.98,5.58 230.772,4.716 230.736,3.636 C230.736,2.52 229.98,1.656 228.792,1.656 Z" id="Shape"></path>
                <path d="M242.788,25.956 L242.788,10.944 L247,10.944 L247,8.532 L242.788,8.532 L242.788,7.596 C242.788,4.932 243.472,2.556 246.172,2.556 C247.072,2.556 247.72,2.736 248.188,2.952 L248.62,0.504 C248.008,0.252 247.036,0 245.92,0 C244.444,0 242.86,0.468 241.672,1.62 C240.196,3.024 239.656,5.256 239.656,7.704 L239.656,8.532 L237.208,8.532 L237.208,10.944 L239.656,10.944 L239.656,25.956 L242.788,25.956 Z" id="Path"></path>
                <path d="M267.08,17.82 C267.116,17.496 267.188,16.992 267.188,16.344 C267.188,13.14 265.676,8.136 259.988,8.136 C254.912,8.136 251.816,12.276 251.816,17.532 C251.816,22.788 255.02,26.352 260.384,26.352 C263.156,26.352 265.064,25.74 266.18,25.236 L265.64,22.968 C264.452,23.472 263.084,23.868 260.816,23.868 C257.648,23.868 254.912,22.104 254.84,17.82 L267.08,17.82 Z M254.876,15.552 C255.128,13.356 256.532,10.404 259.736,10.404 C263.3,10.404 264.164,13.536 264.128,15.552 L254.876,15.552 Z" id="Shape"></path>
                <path d="M284.164,8.532 L289.42,25.956 L292.3,25.956 L295.108,17.676 C295.72,15.804 296.26,14.004 296.692,11.916 L296.764,11.916 C297.196,13.968 297.7,15.696 298.312,17.64 L300.976,25.956 L303.856,25.956 L309.472,8.532 L306.34,8.532 L303.856,17.28 C303.28,19.332 302.812,21.168 302.524,22.932 L302.416,22.932 C302.02,21.168 301.516,19.332 300.868,17.244 L298.168,8.532 L295.504,8.532 L292.66,17.388 C292.084,19.296 291.508,21.168 291.112,22.932 L291.004,22.932 C290.68,21.132 290.212,19.332 289.708,17.388 L287.404,8.532 L284.164,8.532 Z" id="Path"></path>
                <path d="M319.508,25.956 L319.508,8.532 L316.34,8.532 L316.34,25.956 L319.508,25.956 Z M317.924,1.656 C316.772,1.656 315.944,2.52 315.944,3.636 C315.944,4.716 316.736,5.58 317.852,5.58 C319.112,5.58 319.904,4.716 319.868,3.636 C319.868,2.52 319.112,1.656 317.924,1.656 Z" id="Shape"></path>
                <path d="M329.184,5.328 L329.184,8.532 L326.484,8.532 L326.484,10.944 L329.184,10.944 L329.184,20.448 C329.184,22.5 329.508,24.048 330.408,24.984 C331.164,25.848 332.352,26.352 333.828,26.352 C335.052,26.352 336.024,26.136 336.636,25.884 L336.492,23.508 C336.024,23.652 335.52,23.724 334.656,23.724 C332.892,23.724 332.28,22.5 332.28,20.34 L332.28,10.944 L336.816,10.944 L336.816,8.532 L332.28,8.532 L332.28,4.356 L329.184,5.328 Z" id="Path"></path>
                <path d="M344.08,25.956 L347.248,25.956 L347.248,15.444 C347.248,14.832 347.284,14.364 347.464,13.932 C348.04,12.204 349.66,10.764 351.712,10.764 C354.7,10.764 355.744,13.14 355.744,15.948 L355.744,25.956 L358.912,25.956 L358.912,15.588 C358.912,9.576 355.168,8.136 352.828,8.136 C351.64,8.136 350.524,8.496 349.588,9.036 C348.616,9.576 347.824,10.368 347.32,11.268 L347.248,11.268 L347.248,0.396 L344.08,0.396 L344.08,25.956 Z" id="Path"></path>
                <path d="M393.672,8.532 L390.504,8.532 L390.504,19.224 C390.504,19.8 390.396,20.376 390.216,20.844 C389.64,22.248 388.164,23.724 386.04,23.724 C383.16,23.724 382.152,21.492 382.152,18.18 L382.152,8.532 L378.984,8.532 L378.984,18.72 C378.984,24.84 382.26,26.352 384.996,26.352 C388.092,26.352 389.928,24.516 390.756,23.112 L390.828,23.112 L391.008,25.956 L393.816,25.956 C393.708,24.588 393.672,23.004 393.672,21.204 L393.672,8.532 Z" id="Path"></path>
                <path d="M401.404,25.128 C402.628,25.848 404.392,26.352 406.3,26.352 C410.44,26.352 412.816,24.156 412.816,21.096 C412.816,18.504 411.268,16.992 408.244,15.84 C405.976,14.976 404.932,14.328 404.932,12.888 C404.932,11.592 405.976,10.512 407.848,10.512 C409.468,10.512 410.728,11.088 411.412,11.52 L412.204,9.216 C411.232,8.64 409.684,8.136 407.92,8.136 C404.176,8.136 401.908,10.44 401.908,13.248 C401.908,15.336 403.384,17.064 406.516,18.18 C408.856,19.044 409.756,19.872 409.756,21.384 C409.756,22.824 408.676,23.976 406.372,23.976 C404.788,23.976 403.132,23.328 402.196,22.716 L401.404,25.128 Z" id="Path"></path>
            </g>
            <g id="king" fill="#194E6A">
                <path d="M6.786,0 L0,0 L0,55.38 L6.786,55.38 L6.786,41.184 L10.296,37.284 L23.322,55.38 L31.668,55.38 L15.054,33.15 L29.64,17.628 L21.372,17.628 L10.296,30.654 C9.204,31.98 7.878,33.618 6.942,34.944 L6.786,34.944 L6.786,0 Z" id="Path"></path>
                <path d="M52.7886667,55.38 L52.7886667,17.628 L45.9246667,17.628 L45.9246667,55.38 L52.7886667,55.38 Z M49.3566667,2.73 C46.8606667,2.73 45.0666667,4.602 45.0666667,7.02 C45.0666667,9.36 46.7826667,11.232 49.2006667,11.232 C51.9306667,11.232 53.6466667,9.36 53.5686667,7.02 C53.5686667,4.602 51.9306667,2.73 49.3566667,2.73 Z" id="Shape"></path>
                <path d="M72.1933333,55.38 L79.0573333,55.38 L79.0573333,32.682 C79.0573333,31.512 79.2133333,30.342 79.5253333,29.484 C80.6953333,25.662 84.2053333,22.464 88.7293333,22.464 C95.2033333,22.464 97.4653333,27.534 97.4653333,33.618 L97.4653333,55.38 L104.329333,55.38 L104.329333,32.838 C104.329333,19.89 96.2173333,16.77 90.9913333,16.77 C84.7513333,16.77 80.3833333,20.28 78.5113333,23.868 L78.3553333,23.868 L77.9653333,17.628 L71.8813333,17.628 C72.1153333,20.748 72.1933333,23.946 72.1933333,27.846 L72.1933333,55.38 Z" id="Path"></path>
                <path d="M155.714,28.002 C155.714,23.4 155.87,20.358 156.026,17.628 L150.02,17.628 L149.708,23.322 L149.552,23.322 C147.914,20.202 144.326,16.77 137.774,16.77 C129.116,16.77 120.77,24.024 120.77,36.816 C120.77,47.268 127.478,55.224 136.838,55.224 C142.688,55.224 146.744,52.416 148.85,48.906 L149.006,48.906 L149.006,53.118 C149.006,62.634 143.858,66.3 136.838,66.3 C132.158,66.3 128.258,64.896 125.762,63.336 L124.046,68.562 C127.088,70.59 132.08,71.682 136.604,71.682 C141.362,71.682 146.666,70.59 150.332,67.158 C153.998,63.882 155.714,58.578 155.714,49.92 L155.714,28.002 Z M148.928,39.312 C148.928,40.482 148.772,41.808 148.382,42.978 C146.9,47.346 143.078,49.998 138.866,49.998 C131.456,49.998 127.712,43.836 127.712,36.426 C127.712,27.69 132.392,22.152 138.944,22.152 C143.936,22.152 147.29,25.428 148.538,29.406 C148.85,30.342 148.928,31.356 148.928,32.526 L148.928,39.312 Z" id="Shape"></path>
            </g>
            <g id="spring" transform="translate(173.348000, 2.730000)" fill="#80BFE1">
                <path d="M0,50.856 C2.652,52.416 6.474,53.508 10.608,53.508 C19.578,53.508 24.726,48.75 24.726,42.12 C24.726,36.504 21.372,33.228 14.82,30.732 C9.906,28.86 7.644,27.456 7.644,24.336 C7.644,21.528 9.906,19.188 13.962,19.188 C17.472,19.188 20.202,20.436 21.684,21.372 L23.4,16.38 C21.294,15.132 17.94,14.04 14.118,14.04 C6.006,14.04 1.092,19.032 1.092,25.116 C1.092,29.64 4.29,33.384 11.076,35.802 C16.146,37.674 18.096,39.468 18.096,42.744 C18.096,45.864 15.756,48.36 10.764,48.36 C7.332,48.36 3.744,46.956 1.716,45.63 L0,50.856 Z" id="Path"></path>
                <path d="M41.5566667,68.094 L48.3426667,68.094 L48.3426667,47.58 L48.4986667,47.58 C50.7606667,51.324 55.1286667,53.508 60.1206667,53.508 C69.0126667,53.508 77.2806667,46.8 77.2806667,33.228 C77.2806667,21.762 70.4166667,14.04 61.2906667,14.04 C55.1286667,14.04 50.6826667,16.77 47.8746667,21.372 L47.7186667,21.372 L47.4066667,14.898 L41.2446667,14.898 C41.4006667,18.486 41.5566667,22.386 41.5566667,27.222 L41.5566667,68.094 Z M48.3426667,30.81 C48.3426667,29.874 48.5766667,28.86 48.8106667,28.002 C50.1366667,22.854 54.5046667,19.5 59.1846667,19.5 C66.4386667,19.5 70.4166667,25.974 70.4166667,33.54 C70.4166667,42.198 66.2046667,48.126 58.9506667,48.126 C54.0366667,48.126 49.9026667,44.85 48.6546667,40.092 C48.4986667,39.234 48.3426667,38.298 48.3426667,37.284 L48.3426667,30.81 Z" id="Shape"></path>
                <path d="M93.9553333,52.65 L100.741333,52.65 L100.741333,32.526 C100.741333,31.356 100.897333,30.264 101.053333,29.328 C101.989333,24.18 105.421333,20.514 110.257333,20.514 C111.193333,20.514 111.895333,20.592 112.597333,20.748 L112.597333,14.274 C111.973333,14.118 111.427333,14.04 110.647333,14.04 C106.045333,14.04 101.911333,17.238 100.195333,22.308 L99.8833333,22.308 L99.6493333,14.898 L93.6433333,14.898 C93.8773333,18.408 93.9553333,22.23 93.9553333,26.676 L93.9553333,52.65 Z" id="Path"></path>
                <path d="M134.654,52.65 L134.654,14.898 L127.79,14.898 L127.79,52.65 L134.654,52.65 Z M131.222,0 C128.726,0 126.932,1.872 126.932,4.29 C126.932,6.63 128.648,8.502 131.066,8.502 C133.796,8.502 135.512,6.63 135.434,4.29 C135.434,1.872 133.796,0 131.222,0 Z" id="Shape"></path>
                <path d="M154.058667,52.65 L160.922667,52.65 L160.922667,29.952 C160.922667,28.782 161.078667,27.612 161.390667,26.754 C162.560667,22.932 166.070667,19.734 170.594667,19.734 C177.068667,19.734 179.330667,24.804 179.330667,30.888 L179.330667,52.65 L186.194667,52.65 L186.194667,30.108 C186.194667,17.16 178.082667,14.04 172.856667,14.04 C166.616667,14.04 162.248667,17.55 160.376667,21.138 L160.220667,21.138 L159.830667,14.898 L153.746667,14.898 C153.980667,18.018 154.058667,21.216 154.058667,25.116 L154.058667,52.65 Z" id="Path"></path>
                <path d="M237.579333,25.272 C237.579333,20.67 237.735333,17.628 237.891333,14.898 L231.885333,14.898 L231.573333,20.592 L231.417333,20.592 C229.779333,17.472 226.191333,14.04 219.639333,14.04 C210.981333,14.04 202.635333,21.294 202.635333,34.086 C202.635333,44.538 209.343333,52.494 218.703333,52.494 C224.553333,52.494 228.609333,49.686 230.715333,46.176 L230.871333,46.176 L230.871333,50.388 C230.871333,59.904 225.723333,63.57 218.703333,63.57 C214.023333,63.57 210.123333,62.166 207.627333,60.606 L205.911333,65.832 C208.953333,67.86 213.945333,68.952 218.469333,68.952 C223.227333,68.952 228.531333,67.86 232.197333,64.428 C235.863333,61.152 237.579333,55.848 237.579333,47.19 L237.579333,25.272 Z M230.793333,36.582 C230.793333,37.752 230.637333,39.078 230.247333,40.248 C228.765333,44.616 224.943333,47.268 220.731333,47.268 C213.321333,47.268 209.577333,41.106 209.577333,33.696 C209.577333,24.96 214.257333,19.422 220.809333,19.422 C225.801333,19.422 229.155333,22.698 230.403333,26.676 C230.715333,27.612 230.793333,28.626 230.793333,29.796 L230.793333,36.582 Z" id="Shape"></path>
            </g>
        </g>
    </g>
</svg>